Coordinates
version=1
nRows=22
nColumns=50
inDegrees=no

Units are S.I. units (second, meters, Newtons, ...)
If the header above contains a line with 'inDegrees', this indicates whether rotational values are in degrees (yes) or radians (no).

endheader
time	pelvis_tilt	pelvis_list	pelvis_rotation	pelvis_tx	pelvis_ty	pelvis_tz	hip_flexion_r	hip_adduction_r	hip_rotation_r	knee_angle_r	ankle_angle_r	subtalar_angle_r	mtp_angle_r	hip_flexion_l	hip_adduction_l	hip_rotation_l	knee_angle_l	ankle_angle_l	subtalar_angle_l	mtp_angle_l	lumbar_bending	lumbar_extension	lumbar_twist	thorax_bending	thorax_extension	thorax_twist	head_bending	head_extension	head_twist	scapula_abduction_r	scapula_elevation_r	scapula_upward_rot_r	shoulder_r_x	shoulder_r_y	shoulder_r_z	elbow_flexion_r	pro_sup_r	wrist_flexion_r	wrist_deviation_r	scapula_abduction_l	scapula_elevation_l	scapula_upward_rot_l	shoulder_l_x	shoulder_l_y	shoulder_l_z	elbow_flexion_l	pro_sup_l	wrist_flexion_l	wrist_deviation_l
0.964	-0.313646	0.0829046	0.0264874	3.28951	0.945177	0.25831	-0.510694	-0.179222	-0.388313	0.663483	-0.417148	0.083542	0.0296815	1.28272	-0.00597421	-0.15149	0.990445	0.0953693	0.0868994	0.0109434	-0.159354	0.0614163	-0.0202529	-0.134355	-0.100112	0.190338	0	0	0	-1.03544	-0.168665	0.94307	0.112768	-0.29911	0.117256	2.13952	0.20635	0	0.0835765	-1.04116	0.0306322	0.551602	0.510477	0.0270352	-1.43006	0.820494	-0.204715	0	0.0835765
0.968	-0.303494	0.095183	0.0340875	3.32741	0.947132	0.256777	-0.51299	-0.205229	-0.398864	0.753637	-0.42621	0.07063	0.0343539	1.23692	0.0135283	-0.16158	0.889037	0.0900442	0.147978	-0.00101939	-0.185408	0.0381988	-0.0317506	-0.114868	-0.0994743	0.172986	0	0	0	-1.04324	-0.156519	0.931358	0.109279	-0.282246	0.102072	2.15721	0.203368	0	0.0835765	-1.04642	0.0224952	0.544426	0.512702	0.0393712	-1.41283	0.821672	-0.21096	0	0.0835765
0.972	-0.295565	0.099481	0.0369045	3.36505	0.948859	0.255716	-0.506644	-0.224802	-0.394659	0.848053	-0.432055	0.0553125	0.0346591	1.19464	0.023535	-0.169672	0.796004	0.0799847	0.20515	-0.00811182	-0.193528	0.0207262	-0.0489552	-0.114922	-0.0999856	0.180587	0	0	0	-1.06257	-0.145915	0.90711	0.100788	-0.249273	0.095088	2.16525	0.218572	0	0.0835765	-1.05087	0.013998	0.537405	0.509574	0.0514607	-1.39354	0.826734	-0.224347	0	0.0835765
0.976	-0.288402	0.0947356	0.0358983	3.40245	0.950212	0.255432	-0.492474	-0.234752	-0.376262	0.946573	-0.431836	0.0368407	0.0293392	1.15655	0.0225365	-0.178748	0.715895	0.0654904	0.25723	-0.0129534	-0.184587	0.00658063	-0.0422601	-0.108155	-0.103966	0.170304	0	0	0	-1.07892	-0.137805	0.884022	0.0924647	-0.21545	0.0843982	2.16594	0.236148	0	0.0835765	-1.06146	0.00824581	0.527637	0.501142	0.0599106	-1.3654	0.836942	-0.235606	0	0.0835765
0.98	-0.281382	0.0841286	0.0327053	3.43969	0.951171	0.255802	-0.473407	-0.237045	-0.349314	1.04598	-0.430113	0.0205788	0.022028	1.12214	0.0136942	-0.191516	0.64975	0.0493652	0.302806	-0.0168942	-0.165957	-0.00565503	-0.0393751	-0.111368	-0.108313	0.17152	0	0	0	-1.08742	-0.131031	0.866128	0.0861468	-0.187443	0.0667807	2.16074	0.246779	0	0.0835765	-1.07386	0.00402539	0.517893	0.488745	0.0664527	-1.33396	0.851664	-0.250436	0	0.0835765
0.984	-0.273954	0.0725926	0.0283946	3.47684	0.951844	0.256454	-0.452621	-0.236848	-0.32078	1.14513	-0.424831	0.00531874	0.0135099	1.0895	0.00199319	-0.210296	0.596219	0.035795	0.338045	-0.0204878	-0.146868	-0.0183585	-0.0262155	-0.105104	-0.113806	0.157903	0	0	0	-1.08929	-0.123644	0.850842	0.0819496	-0.169317	0.0461302	2.149	0.220451	0	0.0835765	-1.09805	0.0039748	0.500223	0.470193	0.0632098	-1.28794	0.873151	-0.247645	0	0.0835765
0.988	-0.265759	0.0634239	0.0239043	3.51397	0.952359	0.257016	-0.432249	-0.238155	-0.294432	1.24322	-0.415591	-0.00776058	0.0150238	1.05727	-0.00820614	-0.234972	0.554494	0.027772	0.349066	-0.0214951	-0.131942	-0.03196	-0.0111309	-0.0943968	-0.1197	0.140443	0	0	0	-1.09778	-0.115592	0.827843	0.0735329	-0.137797	0.0310338	2.12801	0.243027	0	0.0835765	-1.10312	-0.00212665	0.497962	0.451257	0.0715217	-1.26344	0.893113	-0.279062	0	0.0835765
0.992	-0.256877	0.0569579	0.0212572	3.55113	0.952741	0.257546	-0.413406	-0.239734	-0.271415	1.3391	-0.401161	-0.0184826	0.0230944	1.02566	-0.0150313	-0.263987	0.52475	0.0252864	0.349066	-0.0203192	-0.121222	-0.0460899	-0.0111887	-0.0962667	-0.125767	0.13968	0	0	0	-1.10619	-0.108033	0.805465	0.0686302	-0.114929	0.01669	2.09959	0.220938	0	0.0835765	-1.114	-0.00364482	0.489436	0.427996	0.0723563	-1.22612	0.919008	-0.281731	0	0.0835765
0.996	-0.24743	0.0528657	0.0209809	3.58832	0.953021	0.25811	-0.396092	-0.24091	-0.2519	1.43285	-0.380714	-0.0290036	0.0296046	0.995612	-0.0188463	-0.295414	0.507864	0.0261511	0.349066	-0.0190882	-0.115981	-0.0599834	-0.0140347	-0.0964515	-0.134062	0.137951	0	0	0	-1.11867	-0.101309	0.780494	0.0633709	-0.0885795	0.00629137	2.0626	0.208267	0	0.0835765	-1.11524	-0.00708683	0.486711	0.404481	0.077725	-1.19512	0.94569	-0.288091	0	0.0835765
1	-0.239104	0.0521345	0.0211651	3.62549	0.95317	0.258444	-0.377439	-0.245408	-0.235212	1.52575	-0.358805	-0.0409349	0.0387049	0.969148	-0.0201631	-0.326594	0.50313	0.027326	0.332159	-0.0153675	-0.116016	-0.0727825	-0.00440297	-0.0829301	-0.143627	0.115259	0	0	0	-1.1317	-0.0963147	0.753599	0.0577358	-0.0641034	-0.00267042	2.01734	0.178968	0	0.0835765	-1.12211	-0.00876065	0.479862	0.380874	0.0760859	-1.15554	0.974251	-0.279441	0	0.0835765
1.004	-0.232521	0.0537173	0.0217888	3.66255	0.953205	0.258633	-0.356218	-0.252682	-0.220372	1.61779	-0.337598	-0.0527665	0.0439574	0.946126	-0.0199067	-0.354677	0.507537	0.0264382	0.303564	-0.00951074	-0.119708	-0.0845955	-0.0100676	-0.082274	-0.149932	0.11174	0	0	0	-1.1469	-0.0925528	0.7226	0.0497038	-0.0362205	-0.0109459	1.9646	0.167416	0	0.0835765	-1.11705	-0.0144616	0.48352	0.359357	0.0830726	-1.12888	0.99986	-0.288397	0	0.0835765
1.008	-0.228165	0.0560461	0.0236038	3.6994	0.953104	0.258937	-0.33127	-0.259872	-0.20626	1.70881	-0.318048	-0.0652547	0.0497903	0.926353	-0.0193515	-0.380198	0.51888	0.0220309	0.273583	-0.000787191	-0.126037	-0.0948142	-0.00299984	-0.0675316	-0.156597	0.0875474	0	0	0	-1.16322	-0.0894987	0.688726	0.0406838	-0.0104052	-0.0169358	1.90434	0.144147	0	0.0835765	-1.12299	-0.0155403	0.476761	0.340548	0.0790426	-1.08468	1.0256	-0.279912	0	0.0835765
1.012	-0.226613	0.0586141	0.0265823	3.73598	0.952821	0.25934	-0.301645	-0.267059	-0.19259	1.79889	-0.300702	-0.0773353	0.0534984	0.909874	-0.0190426	-0.402771	0.535522	0.0142792	0.247397	0.00433971	-0.134416	-0.101888	-0.0116356	-0.065039	-0.162045	0.0830764	0	0	0	-1.17594	-0.0879515	0.658113	0.0330641	0.00987398	-0.0266603	1.83865	0.125362	0	0.0835765	-1.11706	-0.019959	0.478009	0.324314	0.0847145	-1.05062	1.04781	-0.288056	0	0.0835765
1.016	-0.226572	0.060906	0.0308095	3.77239	0.952359	0.25987	-0.269118	-0.273435	-0.179488	1.88731	-0.285485	-0.0902542	0.0516637	0.895127	-0.0192016	-0.420347	0.556263	0.0052457	0.229268	0.00700454	-0.143837	-0.108	-0.00593688	-0.0473299	-0.167403	0.0568705	0	0	0	-1.19209	-0.0865149	0.623312	0.022992	0.0311389	-0.0320484	1.76606	0.10577	0	0.0835765	-1.12432	-0.0194969	0.468033	0.309646	0.0744796	-0.996956	1.06874	-0.279965	0	0.0835765
1.02	-0.226843	0.0636136	0.0359214	3.80888	0.95177	0.260478	-0.235422	-0.280435	-0.166989	1.97307	-0.272697	-0.101977	0.0441915	0.879959	-0.0190657	-0.43214	0.578656	-0.00416901	0.222052	0.0064187	-0.15515	-0.113628	0.00761965	-0.0203533	-0.171559	0.0187568	0	0	0	-1.20257	-0.0867645	0.594379	0.0161224	0.0394076	-0.0427677	1.68843	0.0622704	0	0.0835765	-1.11672	-0.0243772	0.473079	0.293384	0.0756145	-0.960314	1.08615	-0.295642	0	0.0835765
1.024	-0.22767	0.0673705	0.0415296	3.84551	0.950972	0.260843	-0.20031	-0.28989	-0.154502	2.05624	-0.261075	-0.113439	0.0382564	0.863888	-0.0173346	-0.437876	0.600124	-0.0132887	0.224631	0.00453432	-0.167827	-0.118554	-0.00331117	-0.0162299	-0.173913	0.0138436	0	0	0	-1.21377	-0.0875656	0.56446	0.00762755	0.0486338	-0.052082	1.60565	0.0405569	0	0.0835765	-1.11778	-0.027003	0.471149	0.277505	0.0638441	-0.912079	1.10324	-0.292744	0	0.0835765
1.028	-0.230142	0.0712246	0.0484374	3.88203	0.949895	0.260756	-0.162086	-0.301049	-0.141508	2.13743	-0.249372	-0.12349	0.0325268	0.848539	-0.0132214	-0.435508	0.620019	-0.0196655	0.232432	0.00237697	-0.179321	-0.122032	-0.0135841	-0.0130297	-0.174801	0.00879023	0	0	0	-1.22213	-0.0897435	0.538183	6.70687e-05	0.0518305	-0.0647528	1.52016	0.0194864	0	0.0835765	-1.11316	-0.0312249	0.474241	0.261124	0.0552409	-0.867906	1.11746	-0.290374	0	0.0835765
1.032	-0.23595	0.074488	0.0584783	3.91811	0.948394	0.259915	-0.118876	-0.313896	-0.128181	2.21718	-0.237049	-0.129091	0.024416	0.836575	-0.00390775	-0.419971	0.638596	-0.0118468	0.232157	0.000119506	-0.188145	-0.122828	-0.0065206	0.00584933	-0.174425	-0.0221108	0	0	0	-1.22873	-0.0925437	0.515729	-0.00628363	0.0485172	-0.0789673	1.43134	-0.0110833	0	0.0835765	-1.10861	-0.0349202	0.476287	0.246817	0.0442366	-0.820163	1.12821	-0.294267	0	0.0835765
1.036	-0.24223	0.0742435	0.0704322	3.95423	0.946634	0.25952	-0.0735127	-0.321778	-0.11418	2.29343	-0.224271	-0.13173	0.0223437	0.824821	0.00270509	-0.405563	0.666403	0.0119265	0.247005	0.0139994	-0.195824	-0.123141	-0.0195473	0.0103763	-0.172609	-0.0281641	0	0	0	-1.23457	-0.0951272	0.496481	-0.0123438	0.0427853	-0.0932295	1.33992	-0.0308207	0	0.0835765	-1.10012	-0.0417055	0.481306	0.231715	0.0333338	-0.777115	1.13878	-0.291783	0	0.0835765
1.04	-0.250468	0.0724781	0.086777	3.99048	0.944842	0.260023	-0.0255104	-0.325442	-0.10385	2.36563	-0.21101	-0.134168	0.0228515	0.81527	0.00778525	-0.390125	0.695279	0.0345176	0.283021	0.033113	-0.211255	-0.121999	-0.0303657	0.0336262	-0.169542	-0.0506417	0	0	0	-1.23746	-0.0980391	0.483007	-0.0172191	0.0240985	-0.108088	1.24252	-0.101251	0	0.0835765	-1.08997	-0.0512913	0.487148	0.219317	0.022946	-0.735705	1.14552	-0.309305	0	0.0835765
1.044	-0.250382	0.0661215	0.0985301	4.02764	0.942722	0.260295	0.0149497	-0.324688	-0.0896818	2.43166	-0.196844	-0.137238	0.0172632	0.788772	0.0135244	-0.374668	0.727499	0.103306	0.284985	0.0492742	-0.211789	-0.127659	-0.0424828	0.0400609	-0.164154	-0.0546459	0	0	0	-1.23958	-0.100263	0.474765	-0.01974	0.0143964	-0.126684	1.15045	-0.0898394	0	0.0835765	-1.0743	-0.062136	0.497282	0.203018	0.0139024	-0.700249	1.15666	-0.298251	0	0.0835765
1.048	-0.254319	0.0584371	0.117481	4.06402	0.940449	0.260354	0.0609013	-0.323782	-0.0820078	2.49481	-0.18438	-0.138459	0.0139477	0.777188	0.0214387	-0.350745	0.795021	0.214367	0.209027	0.01402	-0.215053	-0.132171	-0.0613915	0.050544	-0.155974	-0.0607025	0	0	0	-1.24294	-0.102195	0.468851	-0.0238183	0.00131847	-0.144902	1.05758	-0.100266	0	0.0835765	-1.04133	-0.0784912	0.521418	0.182233	0.0222788	-0.681243	1.16715	-0.29183	0	0.0835765
